<?xml version="1.0"?>
<svg xmlns="http://www.w3.org/2000/svg" height="512px" viewBox="-1 0 387 387.232" width="512px"><path d="m96.117188 387.230469h288v-32h-32v-248.558594l-160-106.671875-160 106.671875v248.558594h-32v32zm32-32v-32h128v32zm128-128h-128v-32h128zm0 32v32h-128v-32zm-192-135.4375 128-85.335938 128 85.335938v231.4375h-32v-192h-192v192h-32zm0 0" fill="#FFF"/><path d="m192.117188 131.230469c13.230468 0 24-10.765625 24-24 0-13.230469-10.769532-24-24-24-13.234376 0-24 10.769531-24 24 0 13.234375 10.765624 24 24 24zm0 0" fill="#FFF"/></svg>
