<?xml version="1.0" encoding="iso-8859-1"?>
<!-- Generator: Adobe Illustrator 18.0.0, SVG Export Plug-In . SVG Version: 6.00 Build 0)  -->
<!DOCTYPE svg PUBLIC "-//W3C//DTD SVG 1.1//EN" "http://www.w3.org/Graphics/SVG/1.1/DTD/svg11.dtd">
<svg xmlns="http://www.w3.org/2000/svg" xmlns:xlink="http://www.w3.org/1999/xlink" version="1.1" id="Capa_1" x="0px" y="0px" viewBox="0 0 297 297" style="enable-background:new 0 0 297 297;" xml:space="preserve" width="512px" height="512px">
<path d="M228.753,280.824l-15.221-89.613c-1.078-6.347-6.577-10.991-13.015-10.991h-4.529c-1.693-4.944-4.364-11.148-8.489-17.408  c-2.158-3.275-4.815-6.708-8.048-10.009c19.694-7.325,35.64-25.76,40.79-49.122c3.551-16.111,1.509-38.875-5.327-59.409  c-8.288-24.896-21.482-40.508-37.15-43.962c-3.514-0.773-7.202-0.078-10.193,1.928c-2.993,2.007-5.035,5.15-5.654,8.7  l-13.876,79.697l-13.876-79.697c-0.619-3.55-2.661-6.693-5.654-8.7c-2.993-2.008-6.678-2.702-10.193-1.928  c-15.668,3.454-28.862,19.066-37.15,43.962c-6.837,20.535-8.878,43.299-5.327,59.409c5.206,23.624,21.45,42.215,41.451,49.37  c-3.125,3.225-5.703,6.569-7.807,9.762c-4.126,6.26-6.796,12.464-8.489,17.408h-4.529c-6.438,0-11.937,4.644-13.015,10.991  l-15.351,90.377c-0.652,3.833,0.42,7.758,2.928,10.728c2.509,2.97,6.199,4.684,10.086,4.684h45.847  c7.291,0,13.201-5.91,13.201-13.201v-90.377c0-6.373-4.517-11.691-10.523-12.928c0.694-1.26,1.461-2.538,2.331-3.808  c4.388-6.405,9.858-10.807,16.522-13.3c6.663,2.493,12.133,6.896,16.521,13.3c0.902,1.316,1.693,2.64,2.406,3.944  c-5.737,1.435-9.993,6.61-9.993,12.792v90.377c0,7.291,5.91,13.201,13.201,13.201h45.242c0.004-0.001,0.012-0.001,0.02,0  c7.291,0,13.201-5.91,13.201-13.201C229.089,282.775,228.973,281.781,228.753,280.824z M183.887,38.664  c8.316,15.438,14.475,41.613,10.568,59.333c-3.334,15.125-13.97,27.15-26.251,30.74L183.887,38.664z M101.623,97.998  c-3.906-17.721,2.252-43.896,10.568-59.334l15.682,90.072C115.592,125.145,104.956,113.121,101.623,97.998z M113.759,270.598H96.746  l10.867-63.975h6.146V270.598z M183.827,270.598v-63.975h5.541l10.867,63.975H183.827z" fill="#FFFFFF"/>
<g>
</g>
<g>
</g>
<g>
</g>
<g>
</g>
<g>
</g>
<g>
</g>
<g>
</g>
<g>
</g>
<g>
</g>
<g>
</g>
<g>
</g>
<g>
</g>
<g>
</g>
<g>
</g>
<g>
</g>
</svg>
