<?xml version="1.0" standalone="no"?><svg xmlns="http://www.w3.org/2000/svg" viewBox="0 0 1440 320"><path fill="#1C541D" fill-opacity="0.8" d="M0,160L34.3,133.3C68.6,107,137,53,206,80C274.3,107,343,213,411,213.3C480,213,549,107,617,85.3C685.7,64,754,128,823,133.3C891.4,139,960,85,1029,80C1097.1,75,1166,117,1234,117.3C1302.9,117,1371,75,1406,53.3L1440,32L1440,320L1405.7,320C1371.4,320,1303,320,1234,320C1165.7,320,1097,320,1029,320C960,320,891,320,823,320C754.3,320,686,320,617,320C548.6,320,480,320,411,320C342.9,320,274,320,206,320C137.1,320,69,320,34,320L0,320Z"></path></svg>